<svg width="248" height="154" viewBox="0 0 248 154" fill="none" xmlns="http://www.w3.org/2000/svg">
<path d="M73.8844 54.1584C69.6681 63.9564 62.8975 70.9134 53.5726 75.0293C44.1079 78.7948 34.2277 78.4624 23.932 74.0319C13.6362 69.6014 6.72458 62.7081 3.19701 53.3518C-0.470289 43.645 -0.195807 33.8926 4.02046 24.0946C8.34214 14.0517 15.2353 7.14744 24.7 3.38194C33.9195 -0.48906 43.6772 -0.20932 53.9729 4.22113C64.2686 8.65158 71.3028 15.5977 75.0755 25.0595C78.6031 34.4158 78.206 44.1155 73.8844 54.1584ZM234.851 153.037L209.847 142.277L216.013 127.948C220.862 116.68 217.648 108.62 206.372 103.768L194.605 98.7042L191.918 104.95C187.701 114.748 181.229 121.688 172.499 125.77C163.875 129.607 155.028 129.574 145.958 125.671C136.153 121.452 129.556 114.839 126.168 105.833C122.886 96.5825 123.353 87.0581 127.569 77.2601C131.891 67.2171 138.609 60.3826 147.723 56.7566C156.592 53.025 166.297 53.4272 176.838 57.9632L219.124 76.1597C246.579 87.9742 254.404 107.599 242.598 135.033L234.851 153.037Z" fill="#51535E"/>
</svg>
