<svg width="281" height="173" viewBox="0 0 281 173" fill="none" xmlns="http://www.w3.org/2000/svg">
<path d="M83.1582 60.5665C78.3872 71.6537 70.7209 79.524 60.1594 84.1774C49.4395 88.4341 38.2466 88.0524 26.5807 83.0323C14.9148 78.0123 7.08123 70.2065 3.07994 59.615C-1.07983 48.6267 -0.774203 37.589 3.99684 26.5018C8.88716 15.1374 16.6923 7.32687 27.4123 3.07018C37.8545 -1.30604 48.9085 -0.984109 60.5744 4.03595C72.2403 9.056 80.2127 16.9215 84.4918 27.6326C88.4931 38.2241 88.0485 49.2021 83.1582 60.5665ZM265.562 172.566L237.231 160.375L244.209 144.16C249.695 131.409 246.05 122.285 233.273 116.787L219.941 111.05L216.899 118.118C212.128 129.205 204.799 137.056 194.913 141.672C185.145 146.01 175.123 145.967 164.846 141.545C153.736 136.764 146.259 129.276 142.416 119.081C138.693 108.609 139.216 97.8297 143.987 86.7425C148.878 75.3781 156.484 67.6464 166.807 63.5473C176.852 59.3288 187.847 59.7893 199.791 64.9289L247.704 85.547C278.813 98.9338 287.688 121.149 274.329 152.193L265.562 172.566Z" fill="#51535E"/>
</svg>
