<svg width="73" height="45" viewBox="0 0 73 45" fill="none" xmlns="http://www.w3.org/2000/svg">
<g filter="url(#filter0_bi_5646_11526)">
<path fill-rule="evenodd" clip-rule="evenodd" d="M51.8388 22.0515C51.879 21.5245 51.8995 20.992 51.8995 20.4545C51.8995 9.15781 42.8464 0 31.6789 0C20.942 0 12.1597 8.46516 11.4983 19.1577C5.03999 19.8204 0 25.3376 0 32.0455C0 38.7395 5.0192 44.2477 11.4583 44.9291V45H12.8064H59.9877H60.6618V44.9824C67.4212 44.6278 72.7941 38.9714 72.7941 32.0455C72.7941 24.8909 67.0605 19.0909 59.9877 19.0909C56.8921 19.0909 54.0529 20.202 51.8388 22.0515ZM27.8823 25.6374C29.1544 25.6374 30.2357 26.1246 31.1262 27.0989C32.0167 28.0732 32.462 29.2498 32.462 30.6285C32.462 32.044 32.0258 33.2114 31.1535 34.1306C30.2993 35.0497 29.1999 35.5277 27.8551 35.5645H27.746C26.5284 35.5645 25.4926 35.1325 24.6384 34.2684C23.7843 33.386 23.3572 32.1819 23.3572 30.6561V30.4079C23.3754 30.2792 23.3845 30.1873 23.3845 30.1322C23.4753 28.8086 23.9297 27.7331 24.7475 26.9059C25.5652 26.0602 26.6102 25.6374 27.8823 25.6374ZM22.2396 39.0389C23.0755 38.6345 23.6752 38.4323 24.0387 38.4323C24.2204 38.4323 24.7111 38.6345 25.5107 39.0389C26.4012 39.4985 27.4916 39.7283 28.7819 39.7283C31.0535 39.7283 32.7436 39.1125 33.8522 37.8808C35.0698 36.5572 36.0148 35.0773 36.6872 33.4412C37.0507 32.522 37.2324 31.5385 37.2324 30.4907C37.2324 29.3325 36.9598 28.0824 36.4146 26.7404C35.1607 23.7807 32.989 22.0802 29.8995 21.639C29.4816 21.5839 29.0999 21.5563 28.7546 21.5563C28.482 21.5563 28.2094 21.5747 27.9368 21.6115C27.6824 21.6298 27.4189 21.685 27.1463 21.7769C26.8737 21.8504 26.6375 21.9148 26.4376 21.9699C26.2558 22.0251 26.0105 22.1354 25.7015 22.3008L25.0473 22.6317C24.9019 22.7053 24.6384 22.8432 24.2568 23.0454C23.8933 23.2476 23.6389 23.3855 23.4935 23.459C23.4208 23.0913 23.3845 22.6409 23.3845 22.1078C23.3845 21.685 23.4208 21.0232 23.4935 20.1224C23.5662 19.2032 23.6025 18.5231 23.6025 18.0818C23.6025 17.1443 23.4844 16.363 23.2482 15.738C22.9574 14.9291 22.2123 14.5247 21.0129 14.5247C20.3405 14.5247 19.7498 14.6993 19.241 15.0486C18.7321 15.3795 18.4777 15.8483 18.4777 16.4549V26.9335C18.4777 27.3563 18.4141 28.3857 18.2869 30.0219C18.1597 31.6396 18.0961 32.9173 18.0961 33.8548C18.0961 36.355 18.4777 38.0187 19.241 38.8459C19.7317 39.3606 20.2042 39.618 20.6585 39.618C20.8947 39.618 21.4218 39.425 22.2396 39.0389ZM38.1592 22.0527V25.9959C38.1592 26.5658 38.1501 27.6136 38.132 29.1395V32.2555C38.132 34.1306 38.1592 36.0149 38.2138 37.9084C38.2501 38.4415 38.3137 38.7908 38.4046 38.9562C38.4954 39.1033 38.7044 39.2412 39.0315 39.3698C39.3041 39.4801 39.7948 39.5353 40.5036 39.5353C41.176 39.5353 41.6394 39.4801 41.8938 39.3698C42.1664 39.2412 42.33 39.1584 42.3845 39.1217C42.439 39.0849 42.5026 38.9654 42.5753 38.7632C42.6662 38.5426 42.7116 38.2301 42.7116 37.8256C42.7661 36.5572 42.7934 35.399 42.7934 34.3512V32.5312C42.7934 32.2555 42.8297 32.1176 42.9024 32.1176C42.9751 32.1176 43.066 32.2003 43.175 32.3658C43.4294 32.7334 44.2472 33.818 45.6284 35.6196C47.0096 37.4212 47.7547 38.4047 47.8637 38.5702C48.2272 39.1584 49.0631 39.4526 50.3716 39.4526C50.9531 39.4526 51.3529 39.425 51.571 39.3698C51.8981 39.2963 52.1616 39.1676 52.3615 38.9838C52.5614 38.7816 52.6614 38.5518 52.6614 38.2944C52.6614 38.1657 52.5887 37.9911 52.4433 37.7705C51.8618 36.8697 50.9077 35.4817 49.5811 33.6066C48.2544 31.7315 47.5457 30.7296 47.4548 30.601C47.2367 30.2517 47.1277 29.9575 47.1277 29.7185C47.1277 29.6634 47.1459 29.6174 47.1822 29.5807C47.4911 29.1762 48.109 28.4133 49.0359 27.2919C49.9627 26.1522 50.6533 25.2698 51.1076 24.6447C51.5437 24.0197 51.7618 23.4498 51.7618 22.9351C51.7618 22.5122 51.6074 22.1722 51.2984 21.9148C50.626 21.3633 50.0808 21.0875 49.6628 21.0875C49.1722 21.0875 48.5452 21.4552 47.7819 22.1905C47.3639 22.595 46.7551 23.2844 45.9555 24.2587C45.1741 25.2146 44.4744 26.0878 43.8565 26.8783C43.2386 27.6504 42.9206 28.0457 42.9024 28.064C42.9024 28.0273 42.8933 27.3471 42.8752 26.0235C42.857 24.6999 42.8297 23.1097 42.7934 21.253C42.7752 19.3779 42.757 17.9348 42.7389 16.9237C42.6843 15.6736 42.4117 15.0026 41.9211 14.9107C41.4122 14.8004 40.9215 14.7453 40.449 14.7453C38.9588 14.7453 38.2047 15.214 38.1865 16.1516C38.1683 17.4568 38.1592 19.4238 38.1592 22.0527Z" fill="url(#paint0_linear_5646_11526)"/>
</g>
<defs>
<filter id="filter0_bi_5646_11526" x="-7" y="-7" width="86.7939" height="59" filterUnits="userSpaceOnUse" color-interpolation-filters="sRGB">
<feFlood flood-opacity="0" result="BackgroundImageFix"/>
<feGaussianBlur in="BackgroundImageFix" stdDeviation="3.5"/>
<feComposite in2="SourceAlpha" operator="in" result="effect1_backgroundBlur_5646_11526"/>
<feBlend mode="normal" in="SourceGraphic" in2="effect1_backgroundBlur_5646_11526" result="shape"/>
<feColorMatrix in="SourceAlpha" type="matrix" values="0 0 0 0 0 0 0 0 0 0 0 0 0 0 0 0 0 0 127 0" result="hardAlpha"/>
<feOffset dy="2"/>
<feGaussianBlur stdDeviation="4"/>
<feComposite in2="hardAlpha" operator="arithmetic" k2="-1" k3="1"/>
<feColorMatrix type="matrix" values="0 0 0 0 0 0 0 0 0 0.82 0 0 0 0 1 0 0 0 0.25 0"/>
<feBlend mode="normal" in2="shape" result="effect2_innerShadow_5646_11526"/>
</filter>
<linearGradient id="paint0_linear_5646_11526" x1="37.7451" y1="61.0227" x2="65.5682" y2="0.240448" gradientUnits="userSpaceOnUse">
<stop stop-color="#0082DF"/>
<stop offset="0.299998" stop-color="#48B2FF" stop-opacity="0.75"/>
<stop offset="1" stop-color="#3BADFF" stop-opacity="0"/>
</linearGradient>
</defs>
</svg>
