<svg width="73" height="46" viewBox="0 0 73 46" fill="none" xmlns="http://www.w3.org/2000/svg">
<g filter="url(#filter0_bi_5646_25366)">
<path fill-rule="evenodd" clip-rule="evenodd" d="M51.8388 22.5515C51.879 22.0245 51.8995 21.492 51.8995 20.9545C51.8995 9.65781 42.8464 0.5 31.6789 0.5C20.942 0.5 12.1597 8.96516 11.4983 19.6577C5.03999 20.3204 0 25.8376 0 32.5455C0 39.2395 5.0192 44.7477 11.4583 45.4291V45.5H12.8064H59.9877H60.6618V45.4824C67.4212 45.1278 72.7941 39.4714 72.7941 32.5455C72.7941 25.3909 67.0605 19.5909 59.9877 19.5909C56.8921 19.5909 54.0529 20.702 51.8388 22.5515ZM27.8823 26.1374C29.1544 26.1374 30.2357 26.6246 31.1262 27.5989C32.0167 28.5732 32.462 29.7498 32.462 31.1285C32.462 32.544 32.0258 33.7114 31.1535 34.6306C30.2993 35.5497 29.1999 36.0277 27.8551 36.0645H27.746C26.5284 36.0645 25.4926 35.6325 24.6384 34.7684C23.7843 33.886 23.3572 32.6819 23.3572 31.1561V30.9079C23.3754 30.7792 23.3845 30.6873 23.3845 30.6322C23.4753 29.3086 23.9297 28.2331 24.7475 27.4059C25.5652 26.5602 26.6102 26.1374 27.8823 26.1374ZM22.2396 39.5389C23.0755 39.1345 23.6752 38.9323 24.0387 38.9323C24.2204 38.9323 24.7111 39.1345 25.5107 39.5389C26.4012 39.9985 27.4916 40.2283 28.7819 40.2283C31.0535 40.2283 32.7436 39.6125 33.8522 38.3808C35.0698 37.0572 36.0148 35.5773 36.6872 33.9412C37.0507 33.022 37.2324 32.0385 37.2324 30.9907C37.2324 29.8325 36.9598 28.5824 36.4146 27.2404C35.1607 24.2807 32.989 22.5802 29.8995 22.139C29.4816 22.0839 29.0999 22.0563 28.7546 22.0563C28.482 22.0563 28.2094 22.0747 27.9368 22.1115C27.6824 22.1298 27.4189 22.185 27.1463 22.2769C26.8737 22.3504 26.6375 22.4148 26.4376 22.4699C26.2558 22.5251 26.0105 22.6354 25.7015 22.8008L25.0473 23.1317C24.9019 23.2053 24.6384 23.3432 24.2568 23.5454C23.8933 23.7476 23.6389 23.8855 23.4935 23.959C23.4208 23.5913 23.3845 23.1409 23.3845 22.6078C23.3845 22.185 23.4208 21.5232 23.4935 20.6224C23.5662 19.7032 23.6025 19.0231 23.6025 18.5818C23.6025 17.6443 23.4844 16.863 23.2482 16.238C22.9574 15.4291 22.2123 15.0247 21.0129 15.0247C20.3405 15.0247 19.7498 15.1993 19.241 15.5486C18.7321 15.8795 18.4777 16.3483 18.4777 16.9549V27.4335C18.4777 27.8563 18.4141 28.8857 18.2869 30.5219C18.1597 32.1396 18.0961 33.4173 18.0961 34.3548C18.0961 36.855 18.4777 38.5187 19.241 39.3459C19.7317 39.8606 20.2042 40.118 20.6585 40.118C20.8947 40.118 21.4218 39.925 22.2396 39.5389ZM38.1592 22.5527V26.4959C38.1592 27.0658 38.1501 28.1136 38.132 29.6395V32.7555C38.132 34.6306 38.1592 36.5149 38.2138 38.4084C38.2501 38.9415 38.3137 39.2908 38.4046 39.4562C38.4954 39.6033 38.7044 39.7412 39.0315 39.8698C39.3041 39.9801 39.7948 40.0353 40.5036 40.0353C41.176 40.0353 41.6394 39.9801 41.8938 39.8698C42.1664 39.7412 42.33 39.6584 42.3845 39.6217C42.439 39.5849 42.5026 39.4654 42.5753 39.2632C42.6662 39.0426 42.7116 38.7301 42.7116 38.3256C42.7661 37.0572 42.7934 35.899 42.7934 34.8512V33.0312C42.7934 32.7555 42.8297 32.6176 42.9024 32.6176C42.9751 32.6176 43.066 32.7003 43.175 32.8658C43.4294 33.2334 44.2472 34.318 45.6284 36.1196C47.0096 37.9212 47.7547 38.9047 47.8637 39.0702C48.2272 39.6584 49.0631 39.9526 50.3716 39.9526C50.9531 39.9526 51.3529 39.925 51.571 39.8698C51.8981 39.7963 52.1616 39.6676 52.3615 39.4838C52.5614 39.2816 52.6614 39.0518 52.6614 38.7944C52.6614 38.6657 52.5887 38.4911 52.4433 38.2705C51.8618 37.3697 50.9077 35.9817 49.5811 34.1066C48.2544 32.2315 47.5457 31.2296 47.4548 31.101C47.2367 30.7517 47.1277 30.4575 47.1277 30.2185C47.1277 30.1634 47.1459 30.1174 47.1822 30.0807C47.4911 29.6762 48.109 28.9133 49.0359 27.7919C49.9627 26.6522 50.6533 25.7698 51.1076 25.1447C51.5437 24.5197 51.7618 23.9498 51.7618 23.4351C51.7618 23.0122 51.6074 22.6722 51.2984 22.4148C50.626 21.8633 50.0808 21.5875 49.6628 21.5875C49.1722 21.5875 48.5452 21.9552 47.7819 22.6905C47.3639 23.095 46.7551 23.7844 45.9555 24.7587C45.1741 25.7146 44.4744 26.5878 43.8565 27.3783C43.2386 28.1504 42.9206 28.5457 42.9024 28.564C42.9024 28.5273 42.8933 27.8471 42.8752 26.5235C42.857 25.1999 42.8297 23.6097 42.7934 21.753C42.7752 19.8779 42.757 18.4348 42.7389 17.4237C42.6843 16.1736 42.4117 15.5026 41.9211 15.4107C41.4122 15.3004 40.9215 15.2453 40.449 15.2453C38.9588 15.2453 38.2047 15.714 38.1865 16.6516C38.1683 17.9568 38.1592 19.9238 38.1592 22.5527Z" fill="url(#paint0_linear_5646_25366)"/>
</g>
<defs>
<filter id="filter0_bi_5646_25366" x="-7" y="-6.5" width="86.7949" height="59" filterUnits="userSpaceOnUse" color-interpolation-filters="sRGB">
<feFlood flood-opacity="0" result="BackgroundImageFix"/>
<feGaussianBlur in="BackgroundImageFix" stdDeviation="3.5"/>
<feComposite in2="SourceAlpha" operator="in" result="effect1_backgroundBlur_5646_25366"/>
<feBlend mode="normal" in="SourceGraphic" in2="effect1_backgroundBlur_5646_25366" result="shape"/>
<feColorMatrix in="SourceAlpha" type="matrix" values="0 0 0 0 0 0 0 0 0 0 0 0 0 0 0 0 0 0 127 0" result="hardAlpha"/>
<feOffset dy="2"/>
<feGaussianBlur stdDeviation="4"/>
<feComposite in2="hardAlpha" operator="arithmetic" k2="-1" k3="1"/>
<feColorMatrix type="matrix" values="0 0 0 0 0 0 0 0 0 0.82 0 0 0 0 1 0 0 0 0.25 0"/>
<feBlend mode="normal" in2="shape" result="effect2_innerShadow_5646_25366"/>
</filter>
<linearGradient id="paint0_linear_5646_25366" x1="37.7451" y1="61.5227" x2="65.5682" y2="0.740448" gradientUnits="userSpaceOnUse">
<stop stop-color="#0082DF"/>
<stop offset="0.299998" stop-color="#48B2FF" stop-opacity="0.75"/>
<stop offset="1" stop-color="#3BADFF" stop-opacity="0"/>
</linearGradient>
</defs>
</svg>
