<svg width="118" height="74" viewBox="0 0 118 74" fill="none" xmlns="http://www.w3.org/2000/svg">
<g filter="url(#filter0_bi_5646_11242)">
<path fill-rule="evenodd" clip-rule="evenodd" d="M83.9892 36.3187C84.0544 35.4649 84.0876 34.602 84.0876 33.7313C84.0876 15.4283 69.4198 0.59082 51.3262 0.59082C33.9303 0.59082 19.7011 14.3061 18.6296 31.6301C8.1658 32.7039 0 41.6427 0 52.5109C0 63.3566 8.13211 72.2809 18.5648 73.3849V73.4998H20.7489H97.1921H98.2842V73.4713C109.236 72.8968 117.941 63.7322 117.941 52.5109C117.941 40.919 108.651 31.5219 97.1921 31.5219C92.1765 31.5219 87.5765 33.3221 83.9892 36.3187ZM45.1749 42.1286C47.236 42.1286 48.988 42.9179 50.4307 44.4965C51.8735 46.0751 52.5949 47.9813 52.5949 50.2152C52.5949 52.5086 51.8882 54.3999 50.4749 55.8892C49.091 57.3784 47.3096 58.1528 45.1308 58.2124H44.9541C42.9814 58.2124 41.303 57.5124 39.9192 56.1125C38.5353 54.6829 37.8434 52.732 37.8434 50.2598V49.8577C37.8728 49.6492 37.8875 49.5003 37.8875 49.411C38.0347 47.2665 38.7708 45.524 40.0958 44.1837C41.4208 42.8136 43.1139 42.1286 45.1749 42.1286ZM36.0325 63.8417C37.387 63.1864 38.3586 62.8588 38.9475 62.8588C39.2419 62.8588 40.0369 63.1864 41.3325 63.8417C42.7752 64.5863 44.5419 64.9586 46.6324 64.9586C50.3129 64.9586 53.0512 63.9608 54.8473 61.9653C56.8201 59.8207 58.3512 57.4231 59.4406 54.7722C60.0295 53.283 60.3239 51.6895 60.3239 49.9918C60.3239 48.1153 59.8823 46.09 58.999 43.9157C56.9673 39.1203 53.4487 36.3652 48.4432 35.6504C47.766 35.561 47.1477 35.5164 46.5883 35.5164C46.1466 35.5164 45.7049 35.5461 45.2633 35.6057C44.8511 35.6355 44.4241 35.7248 43.9825 35.8738C43.5408 35.9929 43.158 36.0972 42.8341 36.1865C42.5397 36.2759 42.1422 36.4546 41.6416 36.7226L40.5817 37.2588C40.3461 37.3779 39.9192 37.6013 39.3008 37.9289C38.712 38.2566 38.2997 38.4799 38.0642 38.5991C37.9464 38.0034 37.8875 37.2737 37.8875 36.4099C37.8875 35.7248 37.9464 34.6526 38.0642 33.1931C38.182 31.7039 38.2408 30.6019 38.2408 29.887C38.2408 28.368 38.0495 27.1022 37.6667 26.0895C37.1956 24.7789 35.9884 24.1237 34.0451 24.1237C32.9556 24.1237 31.9987 24.4066 31.1743 24.9725C30.3498 25.5087 29.9376 26.2682 29.9376 27.2511V44.2284C29.9376 44.9135 29.8346 46.5814 29.6284 49.2323C29.4223 51.8533 29.3193 53.9234 29.3193 55.4424C29.3193 59.4931 29.9376 62.1886 31.1743 63.529C31.9693 64.3629 32.7348 64.7799 33.4709 64.7799C33.8537 64.7799 34.7076 64.4672 36.0325 63.8417ZM61.8256 36.3205V42.7094C61.8256 43.6327 61.8109 45.3304 61.7814 47.8026V52.8511C61.7814 55.8892 61.8256 58.9421 61.9139 62.0099C61.9728 62.8737 62.0759 63.4396 62.2231 63.7077C62.3703 63.9459 62.7089 64.1693 63.2389 64.3778C63.6806 64.5565 64.4756 64.6459 65.6239 64.6459C66.7133 64.6459 67.4641 64.5565 67.8764 64.3778C68.318 64.1693 68.583 64.0353 68.6713 63.9757C68.7597 63.9162 68.8627 63.7226 68.9805 63.3949C69.1277 63.0375 69.2013 62.5312 69.2013 61.8759C69.2897 59.8207 69.3338 57.9443 69.3338 56.2466V53.2979C69.3338 52.8511 69.3927 52.6277 69.5105 52.6277C69.6283 52.6277 69.7755 52.7618 69.9522 53.0298C70.3644 53.6255 71.6894 55.3828 73.9271 58.3017C76.1649 61.2206 77.3721 62.8141 77.5488 63.0822C78.1376 64.0353 79.4921 64.5119 81.612 64.5119C82.5542 64.5119 83.202 64.4672 83.5554 64.3778C84.0853 64.2587 84.5123 64.0502 84.8362 63.7523C85.1601 63.4247 85.322 63.0524 85.322 62.6354C85.322 62.4269 85.2042 62.144 84.9687 61.7865C84.0265 60.3271 82.4806 58.0783 80.3312 55.0403C78.1818 52.0022 77.0335 50.379 76.8863 50.1705C76.5329 49.6046 76.3563 49.128 76.3563 48.7408C76.3563 48.6515 76.3857 48.577 76.4446 48.5174C76.9451 47.8622 77.9462 46.6261 79.4479 44.8092C80.9495 42.9626 82.0684 41.5329 82.8045 40.5202C83.5112 39.5075 83.8645 38.5842 83.8645 37.7502C83.8645 37.0652 83.6142 36.5141 83.1137 36.0972C82.0243 35.2036 81.1409 34.7568 80.4637 34.7568C79.6687 34.7568 78.6529 35.3525 77.4163 36.5439C76.739 37.1992 75.7527 38.3161 74.4571 39.8947C73.191 41.4435 72.0574 42.8583 71.0563 44.1391C70.0552 45.39 69.54 46.0304 69.5105 46.0602C69.5105 46.0006 69.4958 44.8986 69.4663 42.7541C69.4369 40.6096 69.3927 38.0332 69.3338 35.0249C69.3044 31.9869 69.275 29.6488 69.2455 28.0106C69.1572 25.9852 68.7155 24.8981 67.9205 24.7492C67.0961 24.5704 66.3011 24.4811 65.5355 24.4811C63.1211 24.4811 61.8992 25.2406 61.8698 26.7596C61.8403 28.8743 61.8256 32.0613 61.8256 36.3205Z" fill="url(#paint0_linear_5646_11242)"/>
</g>
<defs>
<filter id="filter0_bi_5646_11242" x="-7" y="-6.40918" width="131.941" height="86.9089" filterUnits="userSpaceOnUse" color-interpolation-filters="sRGB">
<feFlood flood-opacity="0" result="BackgroundImageFix"/>
<feGaussianBlur in="BackgroundImageFix" stdDeviation="3.5"/>
<feComposite in2="SourceAlpha" operator="in" result="effect1_backgroundBlur_5646_11242"/>
<feBlend mode="normal" in="SourceGraphic" in2="effect1_backgroundBlur_5646_11242" result="shape"/>
<feColorMatrix in="SourceAlpha" type="matrix" values="0 0 0 0 0 0 0 0 0 0 0 0 0 0 0 0 0 0 127 0" result="hardAlpha"/>
<feOffset dy="2"/>
<feGaussianBlur stdDeviation="4"/>
<feComposite in2="hardAlpha" operator="arithmetic" k2="-1" k3="1"/>
<feColorMatrix type="matrix" values="0 0 0 0 0 0 0 0 0 0.82 0 0 0 0 1 0 0 0 0.25 0"/>
<feBlend mode="normal" in2="shape" result="effect2_innerShadow_5646_11242"/>
</filter>
<linearGradient id="paint0_linear_5646_11242" x1="61.1546" y1="99.4598" x2="106.234" y2="0.98039" gradientUnits="userSpaceOnUse">
<stop stop-color="#0082DF"/>
<stop offset="0.299998" stop-color="#48B2FF" stop-opacity="0.75"/>
<stop offset="1" stop-color="#3BADFF" stop-opacity="0"/>
</linearGradient>
</defs>
</svg>
