<svg width="118" height="73" viewBox="0 0 118 73" fill="none" xmlns="http://www.w3.org/2000/svg">
<g filter="url(#filter0_bi_5646_25271)">
<path fill-rule="evenodd" clip-rule="evenodd" d="M83.9892 35.7279C84.0544 34.8741 84.0876 34.0112 84.0876 33.1405C84.0876 14.8375 69.4198 0 51.3262 0C33.9303 0 19.7011 13.7153 18.6296 31.0392C8.1658 32.1131 0 41.0519 0 51.92C0 62.7657 8.13211 71.6901 18.5648 72.7941V72.909H20.7489H97.1921H98.2842V72.8804C109.236 72.306 117.941 63.1414 117.941 51.92C117.941 40.3282 108.651 30.9311 97.1921 30.9311C92.1765 30.9311 87.5765 32.7313 83.9892 35.7279ZM45.1749 41.5378C47.236 41.5378 48.988 42.3271 50.4307 43.9057C51.8735 45.4842 52.5949 47.3905 52.5949 49.6243C52.5949 51.9178 51.8882 53.8091 50.4749 55.2983C49.091 56.7876 47.3096 57.562 45.1308 57.6216H44.9541C42.9814 57.6216 41.303 56.9216 39.9192 55.5217C38.5353 54.0921 37.8434 52.1412 37.8434 49.669V49.2669C37.8728 49.0584 37.8875 48.9095 37.8875 48.8201C38.0347 46.6756 38.7708 44.9332 40.0958 43.5929C41.4208 42.2228 43.1139 41.5378 45.1749 41.5378ZM36.0325 63.2509C37.387 62.5956 38.3586 62.268 38.9475 62.268C39.2419 62.268 40.0369 62.5956 41.3325 63.2509C42.7752 63.9955 44.5419 64.3678 46.6324 64.3678C50.3129 64.3678 53.0512 63.37 54.8473 61.3744C56.8201 59.2299 58.3512 56.8323 59.4406 54.1814C60.0295 52.6922 60.3239 51.0987 60.3239 49.4009C60.3239 47.5245 59.8823 45.4991 58.999 43.3248C56.9673 38.5295 53.4487 35.7744 48.4432 35.0596C47.766 34.9702 47.1477 34.9255 46.5883 34.9255C46.1466 34.9255 45.7049 34.9553 45.2633 35.0149C44.8511 35.0447 44.4241 35.134 43.9825 35.283C43.5408 35.4021 43.158 35.5063 42.8341 35.5957C42.5397 35.685 42.1422 35.8638 41.6416 36.1318L40.5817 36.6679C40.3461 36.7871 39.9192 37.0105 39.3008 37.3381C38.712 37.6657 38.2997 37.8891 38.0642 38.0083C37.9464 37.4126 37.8875 36.6828 37.8875 35.8191C37.8875 35.134 37.9464 34.0618 38.0642 32.6023C38.182 31.1131 38.2408 30.011 38.2408 29.2962C38.2408 27.7772 38.0495 26.5113 37.6667 25.4986C37.1956 24.1881 35.9884 23.5329 34.0451 23.5329C32.9556 23.5329 31.9987 23.8158 31.1743 24.3817C30.3498 24.9178 29.9376 25.6774 29.9376 26.6603V43.6376C29.9376 44.3226 29.8346 45.9906 29.6284 48.6414C29.4223 51.2625 29.3193 53.3325 29.3193 54.8516C29.3193 58.9023 29.9376 61.5978 31.1743 62.9381C31.9693 63.7721 32.7348 64.1891 33.4709 64.1891C33.8537 64.1891 34.7076 63.8764 36.0325 63.2509ZM61.8256 35.7297V42.1186C61.8256 43.0419 61.8109 44.7396 61.7814 47.2118V52.2603C61.7814 55.2983 61.8256 58.3513 61.9139 61.4191C61.9728 62.2829 62.0759 62.8488 62.2231 63.1168C62.3703 63.3551 62.7089 63.5785 63.2389 63.787C63.6806 63.9657 64.4756 64.0551 65.6239 64.0551C66.7133 64.0551 67.4641 63.9657 67.8764 63.787C68.318 63.5785 68.583 63.4445 68.6713 63.3849C68.7597 63.3253 68.8627 63.1317 68.9805 62.8041C69.1277 62.4467 69.2013 61.9403 69.2013 61.2851C69.2897 59.2299 69.3338 57.3535 69.3338 55.6558V52.7071C69.3338 52.2603 69.3927 52.0369 69.5105 52.0369C69.6283 52.0369 69.7755 52.1709 69.9522 52.439C70.3644 53.0347 71.6894 54.792 73.9271 57.7109C76.1649 60.6298 77.3721 62.2233 77.5488 62.4914C78.1376 63.4445 79.4921 63.921 81.612 63.921C82.5542 63.921 83.202 63.8764 83.5554 63.787C84.0853 63.6679 84.5123 63.4594 84.8362 63.1615C85.1601 62.8339 85.322 62.4616 85.322 62.0446C85.322 61.8361 85.2042 61.5531 84.9687 61.1957C84.0265 59.7363 82.4806 57.4875 80.3312 54.4495C78.1818 51.4114 77.0335 49.7881 76.8863 49.5797C76.5329 49.0137 76.3563 48.5372 76.3563 48.15C76.3563 48.0606 76.3857 47.9862 76.4446 47.9266C76.9451 47.2713 77.9462 46.0353 79.4479 44.2184C80.9495 42.3717 82.0684 40.9421 82.8045 39.9294C83.5112 38.9167 83.8645 37.9934 83.8645 37.1594C83.8645 36.4743 83.6142 35.9233 83.1137 35.5063C82.0243 34.6128 81.1409 34.166 80.4637 34.166C79.6687 34.166 78.6529 34.7617 77.4163 35.9531C76.739 36.6084 75.7527 37.7253 74.4571 39.3039C73.191 40.8527 72.0574 42.2675 71.0563 43.5482C70.0552 44.7992 69.54 45.4396 69.5105 45.4694C69.5105 45.4098 69.4958 44.3077 69.4663 42.1632C69.4369 40.0187 69.3927 37.4424 69.3338 34.4341C69.3044 31.396 69.275 29.0579 69.2455 27.4198C69.1572 25.3944 68.7155 24.3073 67.9205 24.1583C67.0961 23.9796 66.3011 23.8903 65.5355 23.8903C63.1211 23.8903 61.8992 24.6498 61.8698 26.1688C61.8403 28.2835 61.8256 31.4705 61.8256 35.7297Z" fill="url(#paint0_linear_5646_25271)"/>
</g>
<defs>
<filter id="filter0_bi_5646_25271" x="-7" y="-7" width="131.941" height="86.9092" filterUnits="userSpaceOnUse" color-interpolation-filters="sRGB">
<feFlood flood-opacity="0" result="BackgroundImageFix"/>
<feGaussianBlur in="BackgroundImageFix" stdDeviation="3.5"/>
<feComposite in2="SourceAlpha" operator="in" result="effect1_backgroundBlur_5646_25271"/>
<feBlend mode="normal" in="SourceGraphic" in2="effect1_backgroundBlur_5646_25271" result="shape"/>
<feColorMatrix in="SourceAlpha" type="matrix" values="0 0 0 0 0 0 0 0 0 0 0 0 0 0 0 0 0 0 127 0" result="hardAlpha"/>
<feOffset dy="2"/>
<feGaussianBlur stdDeviation="4"/>
<feComposite in2="hardAlpha" operator="arithmetic" k2="-1" k3="1"/>
<feColorMatrix type="matrix" values="0 0 0 0 0 0 0 0 0 0.82 0 0 0 0 1 0 0 0 0.25 0"/>
<feBlend mode="normal" in2="shape" result="effect2_innerShadow_5646_25271"/>
</filter>
<linearGradient id="paint0_linear_5646_25271" x1="61.1546" y1="98.869" x2="106.234" y2="0.38957" gradientUnits="userSpaceOnUse">
<stop stop-color="#0082DF"/>
<stop offset="0.299998" stop-color="#48B2FF" stop-opacity="0.75"/>
<stop offset="1" stop-color="#3BADFF" stop-opacity="0"/>
</linearGradient>
</defs>
</svg>
