<svg width="89" height="56" viewBox="0 0 89 56" fill="none" xmlns="http://www.w3.org/2000/svg">
<g filter="url(#filter0_bi_5646_6113)">
<path fill-rule="evenodd" clip-rule="evenodd" d="M63.3585 27.4519C63.4077 26.8078 63.4327 26.1568 63.4327 25.5C63.4327 11.6929 52.3679 0.5 38.7187 0.5C25.5958 0.5 14.8618 10.8463 14.0535 23.9149C6.15999 24.725 0 31.4681 0 39.6667C0 47.8483 6.13458 54.5805 14.0046 55.4133V55.5H15.6522H73.3184H74.1422V55.4785C82.4037 55.0451 88.9706 48.1317 88.9706 39.6667C88.9706 30.9222 81.9628 23.8333 73.3184 23.8333C69.5347 23.8333 66.0647 25.1914 63.3585 27.4519ZM34.0784 31.8346C35.6332 31.8346 36.9548 32.4301 38.0432 33.6209C39.1315 34.8117 39.6757 36.2497 39.6757 37.9349C39.6757 39.6649 39.1426 41.0917 38.0765 42.2151C37.0325 43.3386 35.6887 43.9227 34.0451 43.9677H33.9118C32.4236 43.9677 31.1576 43.4397 30.1136 42.3836C29.0697 41.3052 28.5477 39.8335 28.5477 37.9686V37.6652C28.5699 37.508 28.581 37.3956 28.581 37.3282C28.6921 35.7105 29.2474 34.3961 30.2469 33.385C31.2464 32.3514 32.5236 31.8346 34.0784 31.8346ZM27.1817 48.2143C28.2034 47.7199 28.9364 47.4728 29.3806 47.4728C29.6028 47.4728 30.2025 47.7199 31.1798 48.2143C32.2681 48.776 33.6008 49.0568 35.1779 49.0568C37.9543 49.0568 40.02 48.3041 41.3749 46.7987C42.8631 45.181 44.0181 43.3723 44.8399 41.3726C45.2841 40.2491 45.5063 39.0471 45.5063 37.7663C45.5063 36.3508 45.1731 34.823 44.5067 33.1828C42.9741 29.5653 40.3199 27.487 36.5439 26.9477C36.033 26.8803 35.5666 26.8466 35.1446 26.8466C34.8114 26.8466 34.4782 26.8691 34.145 26.914C33.8341 26.9365 33.512 27.0039 33.1788 27.1162C32.8456 27.2061 32.5569 27.2847 32.3126 27.3521C32.0905 27.4196 31.7906 27.5544 31.413 27.7566L30.6134 28.161C30.4357 28.2509 30.1136 28.4194 29.6472 28.6666C29.2029 28.9137 28.892 29.0822 28.7143 29.1721C28.6254 28.7227 28.581 28.1723 28.581 27.5207C28.581 27.0039 28.6254 26.195 28.7143 25.0941C28.8031 23.9706 28.8476 23.1393 28.8476 22.6C28.8476 21.4541 28.7032 20.4992 28.4144 19.7353C28.059 18.7467 27.1484 18.2524 25.6824 18.2524C24.8606 18.2524 24.1387 18.4658 23.5168 18.8927C22.8948 19.2972 22.5839 19.8701 22.5839 20.6116V33.4187C22.5839 33.9355 22.5061 35.1937 22.3507 37.1934C22.1952 39.1706 22.1174 40.7322 22.1174 41.8781C22.1174 44.9338 22.5839 46.9672 23.5168 47.9783C24.1165 48.6075 24.694 48.922 25.2493 48.922C25.538 48.922 26.1822 48.6861 27.1817 48.2143ZM46.6391 27.4533V32.2728C46.6391 32.9693 46.628 34.25 46.6057 36.1149V39.9233C46.6057 42.2151 46.6391 44.5182 46.7057 46.8324C46.7501 47.484 46.8279 47.9109 46.9389 48.1131C47.05 48.2929 47.3054 48.4614 47.7052 48.6187C48.0384 48.7535 48.6381 48.8209 49.5044 48.8209C50.3262 48.8209 50.8926 48.7535 51.2035 48.6187C51.5367 48.4614 51.7366 48.3603 51.8033 48.3154C51.8699 48.2704 51.9476 48.1244 52.0365 47.8772C52.1475 47.6076 52.2031 47.2256 52.2031 46.7313C52.2697 45.181 52.303 43.7655 52.303 42.4848V40.2604C52.303 39.9233 52.3474 39.7548 52.4363 39.7548C52.5251 39.7548 52.6362 39.8559 52.7695 40.0581C53.0804 40.5075 54.0799 41.8332 55.768 44.0351C57.4561 46.237 58.3668 47.4391 58.5001 47.6413C58.9443 48.3603 59.966 48.7198 61.5653 48.7198C62.276 48.7198 62.7647 48.6861 63.0312 48.6187C63.431 48.5288 63.7531 48.3715 63.9974 48.1468C64.2418 47.8997 64.3639 47.6188 64.3639 47.3043C64.3639 47.147 64.2751 46.9335 64.0974 46.6639C63.3866 45.563 62.2205 43.8666 60.5991 41.5748C58.9776 39.283 58.1114 38.0584 58.0003 37.9012C57.7338 37.4743 57.6005 37.1148 57.6005 36.8227C57.6005 36.7553 57.6227 36.6991 57.6671 36.6542C58.0447 36.1598 58.7999 35.2274 59.9327 33.8568C61.0655 32.4638 61.9095 31.3853 62.4648 30.6213C62.9979 29.8574 63.2645 29.1609 63.2645 28.5317C63.2645 28.015 63.0757 27.5993 62.6981 27.2847C61.8762 26.6107 61.2099 26.2737 60.699 26.2737C60.0993 26.2737 59.333 26.723 58.4001 27.6218C57.8892 28.1161 57.1452 28.9587 56.1678 30.1495C55.2127 31.3179 54.3576 32.3851 53.6024 33.3513C52.8472 34.2949 52.4585 34.778 52.4363 34.8005C52.4363 34.7556 52.4252 33.9242 52.403 32.3065C52.3808 30.6887 52.3474 28.7452 52.303 26.4759C52.2808 24.1841 52.2586 22.4203 52.2364 21.1845C52.1698 19.6567 51.8366 18.8365 51.2369 18.7242C50.6149 18.5894 50.0152 18.522 49.4377 18.522C47.6164 18.522 46.6946 19.0949 46.6724 20.2408C46.6502 21.8361 46.6391 24.2402 46.6391 27.4533Z" fill="url(#paint0_linear_5646_6113)"/>
</g>
<defs>
<filter id="filter0_bi_5646_6113" x="-7" y="-6.5" width="102.971" height="69" filterUnits="userSpaceOnUse" color-interpolation-filters="sRGB">
<feFlood flood-opacity="0" result="BackgroundImageFix"/>
<feGaussianBlur in="BackgroundImageFix" stdDeviation="3.5"/>
<feComposite in2="SourceAlpha" operator="in" result="effect1_backgroundBlur_5646_6113"/>
<feBlend mode="normal" in="SourceGraphic" in2="effect1_backgroundBlur_5646_6113" result="shape"/>
<feColorMatrix in="SourceAlpha" type="matrix" values="0 0 0 0 0 0 0 0 0 0 0 0 0 0 0 0 0 0 127 0" result="hardAlpha"/>
<feOffset dy="2"/>
<feGaussianBlur stdDeviation="4"/>
<feComposite in2="hardAlpha" operator="arithmetic" k2="-1" k3="1"/>
<feColorMatrix type="matrix" values="0 0 0 0 0 0 0 0 0 0.82 0 0 0 0 1 0 0 0 0.25 0"/>
<feBlend mode="normal" in2="shape" result="effect2_innerShadow_5646_6113"/>
</filter>
<linearGradient id="paint0_linear_5646_6113" x1="46.1329" y1="75.0833" x2="80.1389" y2="0.793881" gradientUnits="userSpaceOnUse">
<stop stop-color="#0082DF"/>
<stop offset="0.299998" stop-color="#48B2FF" stop-opacity="0.75"/>
<stop offset="1" stop-color="#3BADFF" stop-opacity="0"/>
</linearGradient>
</defs>
</svg>
