<svg width="176" height="111" viewBox="0 0 176 111" fill="none" xmlns="http://www.w3.org/2000/svg">
<path d="M52.3857 38.8302C49.303 45.754 44.4293 50.6358 37.7644 53.4757C31.0033 56.0654 23.9824 55.7395 16.7019 52.498C9.42133 49.2565 4.56794 44.2956 2.14171 37.6155C-0.380805 30.6851 -0.100747 23.758 2.98189 16.8343C6.14159 9.73747 11.102 4.89423 17.8632 2.30455C24.4509 -0.362307 31.3851 -0.0749774 38.6657 3.16653C45.9462 6.40804 50.8863 11.4075 53.4859 18.1648C55.9121 24.845 55.5454 31.7334 52.3857 38.8302ZM165.954 110.549L148.273 102.677L152.781 92.5513C156.326 84.5891 154.112 78.8328 146.138 75.2826L137.817 71.578L135.852 75.9919C132.769 82.9156 128.108 87.788 121.866 90.6093C115.702 93.2574 109.413 93.1536 103 90.298C96.0658 87.2109 91.4339 82.4523 89.1039 76.0225C86.851 69.4195 87.2659 62.6561 90.3485 55.7324C93.5083 48.6356 98.3435 43.8403 104.854 41.3466C111.192 38.7756 118.087 39.1495 125.541 42.4682L155.443 55.7815C174.858 64.4256 180.25 78.4408 171.619 97.8272L165.954 110.549Z" fill="#51535E"/>
</svg>
