<svg width="176" height="111" viewBox="0 0 176 111" fill="none" xmlns="http://www.w3.org/2000/svg">
<path d="M52.3857 38.3302C49.303 45.254 44.4293 50.1358 37.7644 52.9757C31.0033 55.5654 23.9824 55.2395 16.7019 51.998C9.42133 48.7565 4.56794 43.7956 2.14171 37.1155C-0.380805 30.1851 -0.100747 23.258 2.98189 16.3343C6.14159 9.23747 11.102 4.39423 17.8632 1.80455C24.4509 -0.862307 31.3851 -0.574977 38.6657 2.66653C45.9462 5.90804 50.8863 10.9075 53.4859 17.6648C55.9121 24.345 55.5454 31.2334 52.3857 38.3302ZM165.954 110.049L148.273 102.177L152.781 92.0513C156.326 84.0891 154.112 78.3328 146.138 74.7826L137.817 71.078L135.852 75.4919C132.769 82.4156 128.108 87.288 121.866 90.1093C115.702 92.7574 109.413 92.6536 103 89.798C96.0658 86.7109 91.4339 81.9523 89.1039 75.5225C86.851 68.9195 87.2659 62.1561 90.3485 55.2324C93.5083 48.1356 98.3435 43.3403 104.854 40.8466C111.192 38.2756 118.087 38.6495 125.541 41.9682L155.443 55.2815C174.858 63.9256 180.25 77.9408 171.619 97.3272L165.954 110.049Z" fill="#51535E"/>
</svg>
