<svg width="387" height="239" viewBox="0 0 387 239" fill="none" xmlns="http://www.w3.org/2000/svg">
<path d="M114.549 84.0692C107.961 99.3786 97.3856 110.25 82.823 116.685C68.0423 122.572 52.6145 122.057 36.5397 115.139C20.4648 108.222 9.67529 97.4554 4.17104 82.8395C-1.55126 67.676 -1.11845 52.4396 5.46947 37.1303C12.2221 21.4381 22.9888 10.6486 37.7694 4.76162C52.1674 -1.29007 67.4038 -0.857243 83.4786 6.06007C99.5535 12.9774 110.534 23.8264 116.421 38.6071C121.926 53.223 121.301 68.3771 114.549 84.0692ZM365.855 238.479L326.816 221.68L336.451 199.29C344.027 181.684 339.012 169.093 321.407 161.517L303.035 153.612L298.835 163.371C292.248 178.681 282.137 189.526 268.505 195.907C255.037 201.905 241.223 201.858 227.061 195.764C211.752 189.176 201.454 178.848 196.168 164.779C191.047 150.328 191.78 135.447 198.368 120.138C205.12 104.446 215.613 93.7655 229.846 88.0965C243.697 82.2629 258.851 82.887 275.309 89.9691L341.33 118.379C384.197 136.826 396.407 167.482 377.96 210.348L365.855 238.479Z" fill="#51535E"/>
</svg>
