<svg width="52" height="53" viewBox="0 0 52 53" fill="none" xmlns="http://www.w3.org/2000/svg">
<path d="M20.3441 6.15686C23.4683 3.03266 28.5336 3.03266 31.6578 6.15685L46.3441 20.8431C49.4683 23.9673 49.4683 29.0327 46.3441 32.1569L31.6578 46.8431C28.5336 49.9673 23.4683 49.9673 20.3441 46.8431L5.65783 32.1569C2.53364 29.0327 2.53364 23.9673 5.65783 20.8431L20.3441 6.15686Z" fill="#EF856E"/>
<path fill-rule="evenodd" clip-rule="evenodd" d="M17.001 25.4206C19.0717 25.8461 21.735 26.6698 23.751 27.965C26.1187 24.8345 30.372 21.906 35.001 19.5C30.6052 23.7739 26.9677 28.6236 24.501 33.5C22.5127 30.7129 20.3407 28.1189 17.001 25.4206Z" fill="white"/>
</svg>
