<svg width="52" height="53" viewBox="0 0 52 53" fill="none" xmlns="http://www.w3.org/2000/svg">
<path d="M20.3451 6.15686C23.4693 3.03266 28.5346 3.03266 31.6588 6.15685L46.3451 20.8431C49.4693 23.9673 49.4693 29.0327 46.3451 32.1569L31.6588 46.8431C28.5346 49.9673 23.4693 49.9673 20.3451 46.8431L5.65881 32.1569C2.53462 29.0327 2.53461 23.9673 5.65881 20.8431L20.3451 6.15686Z" fill="#EF856E"/>
<path fill-rule="evenodd" clip-rule="evenodd" d="M17.002 25.4206C19.0727 25.8461 21.736 26.6698 23.752 27.965C26.1197 24.8345 30.373 21.906 35.002 19.5C30.6062 23.7739 26.9687 28.6236 24.502 33.5C22.5137 30.7129 20.3417 28.1189 17.002 25.4206Z" fill="white"/>
</svg>
