<svg width="52" height="53" viewBox="0 0 52 53" fill="none" xmlns="http://www.w3.org/2000/svg">
<path d="M20.3431 6.15686C23.4673 3.03266 28.5327 3.03266 31.6569 6.15685L46.3431 20.8431C49.4673 23.9673 49.4673 29.0327 46.3431 32.1569L31.6569 46.8431C28.5327 49.9673 23.4673 49.9673 20.3431 46.8431L5.65686 32.1569C2.53266 29.0327 2.53266 23.9673 5.65685 20.8431L20.3431 6.15686Z" fill="#EF856E"/>
<path fill-rule="evenodd" clip-rule="evenodd" d="M17 25.4206C19.0707 25.8461 21.734 26.6698 23.75 27.965C26.1178 24.8345 30.371 21.906 35 19.5C30.6042 23.7739 26.9668 28.6236 24.5 33.5C22.5118 30.7129 20.3398 28.1189 17 25.4206Z" fill="white"/>
</svg>
