<svg width="52" height="53" viewBox="0 0 52 53" fill="none" xmlns="http://www.w3.org/2000/svg">
<path d="M20.3431 6.24768C23.4673 3.12348 28.5327 3.12348 31.6569 6.24767L46.3431 20.934C49.4673 24.0582 49.4673 29.1235 46.3431 32.2477L31.6569 46.934C28.5327 50.0582 23.4673 50.0582 20.3431 46.934L5.65686 32.2477C2.53266 29.1235 2.53266 24.0582 5.65685 20.934L20.3431 6.24768Z" fill="#EF856E"/>
<path fill-rule="evenodd" clip-rule="evenodd" d="M17 25.5114C19.0707 25.937 21.734 26.7607 23.75 28.0558C26.1177 24.9253 30.371 21.9968 35 19.5908C30.6042 23.8648 26.9667 28.7145 24.5 33.5908C22.5117 30.8037 20.3398 28.2097 17 25.5114Z" fill="white"/>
</svg>
