<svg width="205" height="92" viewBox="0 0 205 92" fill="none" xmlns="http://www.w3.org/2000/svg">
<path fill-rule="evenodd" clip-rule="evenodd" d="M0.941568 36.4664C13.7917 39.3662 27.2128 35.9225 36.9351 27.2307C41.8393 23.0898 45.5106 17.705 47.5606 11.6457C48.6188 8.86322 48.4742 5.76354 47.1605 3.06991C45.4457 0.424138 41.9919 -0.517325 39.1793 0.894323C36.3025 2.43616 33.832 4.62053 31.9621 7.2756C29.9216 9.72295 28.1341 12.3673 26.6259 15.1695C23.4908 20.3585 22.1814 26.4402 22.9006 32.4722C24.1566 38.9765 28.9138 44.3031 35.2869 46.341C42.2841 48.517 49.8633 47.6278 56.1041 43.8985C62.0478 40.6733 67.0026 35.9321 70.4588 30.1625C73.6957 25.4407 74.3372 19.4164 72.1706 14.087C71.4631 12.838 70.522 11.7323 69.398 10.8293C68.6163 10.3161 67.5698 10.5004 67.0251 11.2474C60.5725 17.3908 56.0194 25.227 53.8898 33.854C52.4822 40.9048 54.8838 48.2035 60.2315 53.1274C66.7658 57.7985 75.3131 58.626 82.5722 55.2904C88.9933 52.589 94.2983 47.831 97.6419 41.7746C101.619 34.9709 102.851 26.9144 101.094 19.2057C100.961 18.6024 100.521 18.1087 99.9319 17.9027C99.3432 17.6968 98.6911 17.8082 98.2109 18.197C88.2468 25.1817 82.7593 36.8579 83.7542 48.9572C84.566 54.0684 87.2792 58.7097 91.3598 61.9675C95.7689 65.1261 101.256 66.4212 106.601 65.5648C117.952 63.1165 127.08 54.8674 130.566 43.908C133.915 39.1494 133.766 32.772 130.199 28.1138C128.141 26.3007 125.089 26.1623 122.901 27.7828C121.939 28.5935 121.123 29.5587 120.486 30.6385C119.485 32.1612 118.513 33.7026 117.569 35.2628C113.89 40.7588 111.512 47.0131 110.611 53.5634C110.102 58.7515 111.367 63.9734 114.204 68.3935C117.222 72.8348 122.155 75.6394 127.535 75.9724C133.21 76.2311 138.807 74.7039 143.522 71.61C150.999 66.8929 156.472 59.6404 158.929 51.1954C159.772 48.6654 160.065 45.9835 159.789 43.3246C159.564 40.9125 158.34 38.6921 156.41 37.1903C154.054 35.7899 151.049 36.1631 149.143 38.0926C147.014 40.1934 145.214 42.5981 143.802 45.2279C140.514 50.7276 138.452 56.8665 137.753 63.2369C137.335 66.0379 137.432 68.8948 138.038 71.6703C138.698 74.3923 140.396 76.7642 142.775 78.287C145.302 79.69 148.062 80.6293 150.92 81.0592C164.846 83.9146 178.784 86.7066 192.735 89.4351L202.983 91.4561C204.519 91.7591 204.987 89.8134 204.314 88.824C201.665 84.9379 199.13 80.9719 196.494 77.0773C195.868 76.3609 194.78 76.2704 194.053 76.874C193.349 77.4942 193.266 78.5569 193.866 79.2868C196.5 83.1748 199.236 86.9917 201.858 90.8882L203.189 88.2561C190.935 85.7586 178.676 83.2797 166.412 80.8195C160.591 79.6601 154.635 78.7641 148.891 77.2634C146.487 77.0419 144.268 75.8654 142.742 74.0032C141.216 72.1409 140.513 69.752 140.794 67.3827C140.824 61.7978 142.029 56.2899 144.332 51.2097C145.421 48.7469 146.762 46.4028 148.335 44.2139C149.316 42.04 151.193 40.3928 153.493 39.6877C155.128 40.2459 156.225 41.7777 156.212 43.4852C156.512 45.6877 156.303 47.9249 155.599 50.0271C154.245 54.8542 151.809 59.3089 148.469 63.061C142.448 71.0226 131.997 74.353 122.338 71.3889C118.416 69.3799 115.566 65.7782 114.541 61.5341C113.321 56.7335 113.602 51.6912 115.349 47.0772C117.422 41.5395 120.319 36.3447 123.944 31.6631C124.396 30.8724 125.156 30.3005 126.048 30.0789C126.97 30.0852 127.842 30.5101 128.413 31.2316C129.663 33.1243 129.879 35.5026 128.988 37.568C126.898 47.4757 120.525 55.9464 111.545 60.7513C107.332 62.6317 102.576 62.9962 98.095 61.7821C93.8611 60.4805 90.3806 57.4473 88.5377 53.4532C84.8319 43.9801 87.2289 33.2783 94.6139 26.3247C96.4344 24.3591 98.406 22.5362 100.511 20.8719L97.628 19.8632C100.278 32.0645 94.8335 44.5224 84.0674 50.8922C78.23 54.5123 70.9362 55.0232 64.5886 52.2568C59.0071 48.8554 55.9691 42.5178 56.8541 36.1221C58.4163 27.378 62.8806 19.4217 69.5425 13.5088L67.4656 13.6053C70.4872 17.0464 71.0159 21.9766 68.7868 25.9264C66.5137 30.9694 62.9312 35.3184 58.401 38.5344C53.534 42.5836 47.2986 44.6745 40.918 44.3968C34.8546 44.1103 29.4233 40.5228 26.8133 35.0803C25.0848 30.3032 25.2966 25.0635 27.404 20.4698C29.4946 15.3646 32.5558 10.7103 36.4227 6.75772C37.8867 4.45564 40.5537 3.18951 43.2979 3.49387C45.1379 4.94151 45.8162 7.40096 44.9694 9.55385C43.5453 14.84 40.6935 19.632 36.7186 23.4179C28.696 31.6338 17.4012 35.916 5.82901 35.1289C4.41616 35.0134 3.0114 34.8094 1.62316 34.5182C0.341591 34.2467 -0.381828 36.135 0.942906 36.4626L0.941568 36.4664Z" fill="#DDE0F0"/>
</svg>
