<svg width="148" height="69" viewBox="0 0 148 69" fill="none" xmlns="http://www.w3.org/2000/svg">
<path fill-rule="evenodd" clip-rule="evenodd" d="M0.830776 25.7797C10.1161 28.0505 19.898 25.7262 27.0646 19.5465C30.6765 16.6059 33.41 12.7468 34.976 8.37731C35.7799 6.3723 35.7152 4.12156 34.7971 2.15022C33.5873 0.208398 31.0938 -0.519504 29.0349 0.468143C26.9277 1.54941 25.1069 3.10212 23.7158 5.00414C22.2036 6.75323 20.8724 8.64853 19.7418 10.662C17.3998 14.386 16.3708 18.7814 16.8143 23.167C17.641 27.9023 21.0233 31.8287 25.6207 33.3899C30.669 35.0595 36.1794 34.5128 40.7556 31.8882C45.1097 29.6255 48.7661 26.25 51.3486 22.109C53.7583 18.7252 54.3019 14.3628 52.7993 10.4681C52.3022 9.55274 51.6338 8.73829 50.83 8.06862C50.2695 7.68609 49.5079 7.80626 49.103 8.34109C44.3418 12.7144 40.9367 18.3406 39.2796 24.572C38.1667 29.6692 39.8143 34.9957 43.6303 38.6375C48.3103 42.1113 54.5008 42.8227 59.8107 40.497C64.5044 38.6204 68.4151 35.2373 70.9196 30.8867C73.8932 26.0022 74.892 20.173 73.7173 14.5574C73.6286 14.118 73.3155 13.7541 72.891 13.597C72.4666 13.4399 71.992 13.5124 71.6386 13.7881C64.3188 18.7263 60.1858 27.1263 60.7506 35.9175C61.2731 39.6363 63.1813 43.0388 66.0995 45.4554C69.2574 47.8043 73.2214 48.8152 77.1104 48.2633C85.3776 46.6344 92.1075 40.7681 94.7788 32.8622C97.2702 29.4532 97.2455 24.8244 94.7177 21.3984C93.248 20.0562 91.0357 19.9162 89.4269 21.0635C88.719 21.6392 88.1145 22.3288 87.6382 23.104C86.892 24.1957 86.1665 25.3014 85.4617 26.4211C82.7208 30.3608 80.9144 34.8674 80.1759 39.6082C79.7388 43.3656 80.5888 47.1705 82.5898 50.4143C84.7218 53.6757 88.2645 55.7745 92.1633 56.086C96.2774 56.3475 100.358 55.3121 103.819 53.1286C109.305 49.8034 113.37 44.6127 115.262 38.5176C115.906 36.693 116.154 34.751 115.988 32.8184C115.856 31.0655 114.997 29.4386 113.616 28.324C111.925 27.2774 109.74 27.5091 108.333 28.8842C106.76 30.3808 105.423 32.102 104.365 33.9916C101.908 37.939 100.332 42.3662 99.742 46.9789C99.4025 49.0057 99.4356 51.0796 99.8397 53.1012C100.283 55.0846 101.484 56.8275 103.191 57.9633C105.006 59.014 106.996 59.7313 109.063 60.0803C119.13 62.3328 129.206 64.5395 139.292 66.7002L146.701 68.2996C147.812 68.5393 148.176 67.1338 147.701 66.4072C145.829 63.5534 144.042 60.643 142.18 57.7832C141.735 57.2553 140.947 57.1755 140.412 57.604C139.893 58.0448 139.819 58.8148 140.244 59.3521C142.105 62.2071 144.041 65.0119 145.892 67.8729L146.892 65.9806C138.034 64.0095 129.172 62.0518 120.306 60.1076C116.098 59.1909 111.789 58.4634 107.641 57.3C105.899 57.1081 104.305 56.2257 103.222 54.8548C102.139 53.4839 101.66 51.7416 101.895 50.0263C101.989 45.9747 102.935 41.9943 104.672 38.3384C105.494 36.5658 106.497 34.8825 107.667 33.3148C108.407 31.7504 109.79 30.5797 111.467 30.098C112.647 30.5242 113.423 31.6498 113.391 32.8884C113.58 34.4903 113.399 36.1107 112.861 37.6268C111.816 41.1113 109.991 44.3116 107.519 46.9904C103.047 52.6885 95.4218 54.9691 88.4522 52.6931C85.6329 51.1846 83.6123 48.5345 82.9236 45.442C82.1006 41.9433 82.3704 38.2887 83.6972 34.9638C85.2734 30.9731 87.4425 27.2417 90.1332 23.8922C90.472 23.3244 91.0306 22.9194 91.6808 22.7702C92.3497 22.7868 92.9765 23.1064 93.3812 23.6372C94.2637 25.0266 94.3894 26.7549 93.716 28.2419C92.0717 35.4029 87.3378 41.4658 80.7601 44.8352C77.6789 46.1448 74.2239 46.3474 70.9884 45.4084C67.9336 44.4091 65.4478 42.1633 64.1626 39.2415C61.597 32.3205 63.4751 24.5873 68.9233 19.6382C70.2697 18.2358 71.7238 16.9389 73.2728 15.7587L71.194 14.9895C72.9581 23.8761 68.8463 32.8438 60.9527 37.3254C56.6705 39.876 51.3721 40.152 46.8027 38.0625C42.7974 35.5222 40.6756 30.8848 41.4007 26.256C42.6477 19.9323 45.9899 14.2179 50.9 10.0145L49.392 10.0575C51.5395 12.5934 51.8591 16.1772 50.1905 19.0138C48.4759 22.6431 45.8202 25.7519 42.4917 28.0263C38.908 30.9009 34.357 32.3368 29.7313 32.0525C25.336 31.7659 21.4421 29.0926 19.6192 25.11C18.4271 21.6218 18.6488 17.823 20.2374 14.5176C21.8205 10.8408 24.1019 7.50381 26.9588 4.68634C28.0508 3.03515 30.0022 2.15119 31.9892 2.40765C33.3053 3.48183 33.7656 5.27501 33.1232 6.82597C32.0214 10.6427 29.8901 14.0823 26.9571 16.7774C21.0299 22.634 12.7797 25.5941 4.39407 24.8728C3.37052 24.7707 2.35399 24.6044 1.35058 24.3751C0.424311 24.1614 -0.125064 25.522 0.831796 25.7769L0.830776 25.7797Z" fill="#DDE0F0"/>
</svg>
