<svg width="495" height="292" viewBox="0 0 495 292" fill="none" xmlns="http://www.w3.org/2000/svg">
<path fill-rule="evenodd" clip-rule="evenodd" d="M0.484375 16.3965C0.484375 7.55993 7.64783 0.396484 16.4844 0.396484H478.484C487.321 0.396484 494.484 7.55993 494.484 16.3965V45.1305C494.484 45.2774 494.365 45.3965 494.218 45.3965C494.072 45.3965 493.953 45.5154 493.952 45.6621C493.869 77.8782 487.483 109.769 475.153 139.537C462.741 169.501 444.549 196.728 421.615 219.662C398.681 242.595 371.455 260.788 341.49 273.199C311.526 285.611 279.41 291.999 246.976 291.999C214.543 291.999 182.427 285.611 152.462 273.199C122.498 260.788 95.2714 242.595 72.3375 219.662C49.4035 196.728 31.2114 169.501 18.7996 139.537C6.41879 109.647 0.0314941 77.6161 -0.000244141 45.2651C-0.000366211 45.1312 0.108154 45.0226 0.242004 45.0226C0.375854 45.0226 0.484375 44.9141 0.484375 44.7803V16.3965Z" fill="#ADCDDD"/>
</svg>
