<svg width="317" height="187" viewBox="0 0 317 187" fill="none" xmlns="http://www.w3.org/2000/svg">
<path fill-rule="evenodd" clip-rule="evenodd" d="M0 10.2588C0 4.59303 4.59305 0 10.2588 0H306.741C312.407 0 317 4.59303 317 10.2588V28.5V28.9996C317 28.9998 317 29 317 29C316.999 29 316.999 29.0002 316.999 29.0004C316.934 49.6448 312.836 70.0793 304.935 89.1553C296.97 108.385 285.295 125.858 270.576 140.576C255.858 155.295 238.385 166.97 219.155 174.935C199.925 182.9 179.315 187 158.5 187C137.685 187 117.075 182.9 97.8447 174.935C78.6146 166.97 61.1417 155.295 46.4236 140.576C31.7055 125.858 20.0305 108.385 12.0651 89.1553C4.16357 70.0793 0.065979 49.6448 0.000793457 29.0004C0.000793457 29.0002 0.000610352 29 0.000396729 29C0.000183105 29 0 28.9998 0 28.9996V28.5V10.2588Z" fill="#ADCDDD"/>
</svg>
