<svg width="359" height="212" viewBox="0 0 359 212" fill="none" xmlns="http://www.w3.org/2000/svg">
<path fill-rule="evenodd" clip-rule="evenodd" d="M0 11.6392C0 5.21105 5.21106 0 11.6392 0H347.361C353.789 0 359 5.21105 359 11.6392V32.5V32.9997C359 32.9998 359 33 359 33C358.999 33 358.999 33.0002 358.999 33.0004C358.934 56.4025 354.293 79.5678 345.336 101.192C336.316 122.97 323.094 142.758 306.426 159.426C289.758 176.094 269.97 189.316 248.192 198.336C226.414 207.357 203.072 212 179.5 212C155.928 212 132.586 207.357 110.808 198.336C89.0304 189.316 69.2425 176.094 52.5743 159.426C35.9062 142.758 22.6844 122.97 13.6636 101.192C4.70673 79.5678 0.0659485 56.4025 0.000701904 33.0004C0.000701904 33.0002 0.000549316 33 0.000366211 33C0.000152588 33 0 32.9998 0 32.9996V32.5V11.6392Z" fill="#ADCDDD"/>
</svg>
